<svg width="103" height="47" viewBox="0 0 103 47" fill="none" xmlns="http://www.w3.org/2000/svg">
<g clip-path="url(#clip0_138_10872)">
<path d="M29.6087 1L54.9036 46.75H4.31377L29.6087 1Z" fill="#2A4963"/>
<path d="M39.5216 1L57.7647 39.3618H21.2786L39.5216 1Z" fill="#5388B4"/>
<path d="M19.6956 1L37.9386 39.3618H1.45258L19.6956 1Z" fill="#2187BA"/>
<path d="M58.128 19V10.6H59.688V17.68H64.08V19H58.128ZM68.8064 19.12C67.6544 19.12 66.7504 18.796 66.0944 18.148C65.4464 17.5 65.1224 16.564 65.1224 15.34V10.6H66.6824V15.28C66.6824 16.144 66.8664 16.772 67.2344 17.164C67.6104 17.556 68.1384 17.752 68.8184 17.752C69.4984 17.752 70.0224 17.556 70.3904 17.164C70.7584 16.772 70.9424 16.144 70.9424 15.28V10.6H72.4784V15.34C72.4784 16.564 72.1504 17.5 71.4944 18.148C70.8464 18.796 69.9504 19.12 68.8064 19.12ZM73.526 19L77.066 14.128V15.304L73.694 10.6H75.458L77.966 14.08L77.246 14.092L79.73 10.6H81.422L78.074 15.22V14.092L81.638 19H79.838L77.198 15.304H77.906L75.302 19H73.526ZM86.3611 19.12C85.2091 19.12 84.3051 18.796 83.6491 18.148C83.0011 17.5 82.6771 16.564 82.6771 15.34V10.6H84.2371V15.28C84.2371 16.144 84.4211 16.772 84.7891 17.164C85.1651 17.556 85.6931 17.752 86.3731 17.752C87.0531 17.752 87.5771 17.556 87.9451 17.164C88.3131 16.772 88.4971 16.144 88.4971 15.28V10.6H90.0331V15.34C90.0331 16.564 89.7051 17.5 89.0491 18.148C88.4011 18.796 87.5051 19.12 86.3611 19.12ZM92.2178 19V10.6H95.6738C96.4178 10.6 97.0538 10.72 97.5818 10.96C98.1178 11.2 98.5298 11.544 98.8178 11.992C99.1058 12.44 99.2498 12.972 99.2498 13.588C99.2498 14.204 99.1058 14.736 98.8178 15.184C98.5298 15.624 98.1178 15.964 97.5818 16.204C97.0538 16.436 96.4178 16.552 95.6738 16.552H93.0818L93.7778 15.844V19H92.2178ZM97.7138 19L95.5898 15.952H97.2578L99.3938 19H97.7138ZM93.7778 16.012L93.0818 15.268H95.6018C96.2898 15.268 96.8058 15.12 97.1498 14.824C97.5018 14.528 97.6778 14.116 97.6778 13.588C97.6778 13.052 97.5018 12.64 97.1498 12.352C96.8058 12.064 96.2898 11.92 95.6018 11.92H93.0818L93.7778 11.152V16.012ZM100.995 19V10.6H102.555V19H100.995ZM63.26 24H63.99V31H63.26V24ZM58.88 31H58.14V24H58.88V31ZM63.33 27.77H58.8V27.12H63.33V27.77ZM69.3348 31.06C68.8081 31.06 68.3181 30.9733 67.8648 30.8C67.4181 30.62 67.0281 30.37 66.6948 30.05C66.3681 29.7233 66.1114 29.3467 65.9248 28.92C65.7448 28.4867 65.6548 28.0133 65.6548 27.5C65.6548 26.9867 65.7448 26.5167 65.9248 26.09C66.1114 25.6567 66.3681 25.28 66.6948 24.96C67.0281 24.6333 67.4181 24.3833 67.8648 24.21C68.3114 24.03 68.8014 23.94 69.3348 23.94C69.8614 23.94 70.3481 24.03 70.7948 24.21C71.2414 24.3833 71.6281 24.63 71.9548 24.95C72.2881 25.27 72.5448 25.6467 72.7248 26.08C72.9114 26.5133 73.0048 26.9867 73.0048 27.5C73.0048 28.0133 72.9114 28.4867 72.7248 28.92C72.5448 29.3533 72.2881 29.73 71.9548 30.05C71.6281 30.37 71.2414 30.62 70.7948 30.8C70.3481 30.9733 69.8614 31.06 69.3348 31.06ZM69.3348 30.4C69.7548 30.4 70.1414 30.33 70.4948 30.19C70.8548 30.0433 71.1648 29.84 71.4248 29.58C71.6914 29.3133 71.8981 29.0067 72.0448 28.66C72.1914 28.3067 72.2648 27.92 72.2648 27.5C72.2648 27.08 72.1914 26.6967 72.0448 26.35C71.8981 25.9967 71.6914 25.69 71.4248 25.43C71.1648 25.1633 70.8548 24.96 70.4948 24.82C70.1414 24.6733 69.7548 24.6 69.3348 24.6C68.9148 24.6 68.5248 24.6733 68.1648 24.82C67.8048 24.96 67.4914 25.1633 67.2248 25.43C66.9648 25.69 66.7581 25.9967 66.6048 26.35C66.4581 26.6967 66.3848 27.08 66.3848 27.5C66.3848 27.9133 66.4581 28.2967 66.6048 28.65C66.7581 29.0033 66.9648 29.3133 67.2248 29.58C67.4914 29.84 67.8048 30.0433 68.1648 30.19C68.5248 30.33 68.9148 30.4 69.3348 30.4ZM74.6634 31V24H75.2734L78.4734 29.46H78.1534L81.3234 24H81.9334V31H81.2234V25.11H81.3934L78.4734 30.11H78.1234L75.1834 25.11H75.3734V31H74.6634ZM84.8742 27.13H88.5742V27.76H84.8742V27.13ZM84.9542 30.36H89.1642V31H84.2142V24H89.0142V24.64H84.9542V30.36Z" fill="#2A4963"/>
</g>
<defs>
<clipPath id="clip0_138_10872">
<rect width="103" height="47" fill="white"/>
</clipPath>
</defs>
</svg>
